<?xml version="1.0" encoding="utf-8"?>
<!-- Generator: Adobe Illustrator 21.1.0, SVG Export Plug-In . SVG Version: 6.00 Build 0)  -->
<svg version="1.1" id="圖層_1" xmlns="http://www.w3.org/2000/svg" xmlns:xlink="http://www.w3.org/1999/xlink" x="0px" y="0px"
	 viewBox="0 0 1240 670" style="enable-background:new 0 0 1240 670;" xml:space="preserve">
<style type="text/css">
	.st0{fill:url(#SVGID_1_);}
</style>
<linearGradient id="SVGID_1_" gradientUnits="userSpaceOnUse" x1="-6138.208" y1="-639.7316" x2="-4898.6377" y2="-639.7316" gradientTransform="matrix(-0.9992 4.343484e-02 4.343484e-02 0.9992 -4866.186 1225.2129)">
	<stop  offset="1.000000e-08" style="stop-color:#209CFF"/>
	<stop  offset="1" style="stop-color:#68E0D7"/>
</linearGradient>
<path class="st0" d="M1239.8,349.4C1225.3,657,871.1,743.3,654.6,608.2c-43.4-27.1-79.6-60.2-123-85.4
	c-72.9-42.2-169-16.5-243.1,12.5C185.6,575.6,44.9,538.4,8.1,409.5c-36.3-127.2,56.1-235.9,162.2-258.2
	c111.9-23.5,193.4,70.7,307.9,31.6C575.4,149.6,641.8,58.2,738,24.2c198-70.1,457.1,11.4,496.4,257.9
	C1238.1,305.3,1240.8,327.8,1239.8,349.4z"/>
</svg>
