<?xml version="1.0" encoding="utf-8"?>
<!-- Generator: Adobe Illustrator 21.1.0, SVG Export Plug-In . SVG Version: 6.00 Build 0)  -->
<svg version="1.1" id="圖層_1" xmlns="http://www.w3.org/2000/svg" xmlns:xlink="http://www.w3.org/1999/xlink" x="0px" y="0px"
	 viewBox="0 0 44 44" style="enable-background:new 0 0 44 44;" xml:space="preserve">
<style type="text/css">
	.st0{fill:url(#SVGID_1_);}
	.st1{fill:url(#SVGID_2_);}
	.st2{fill:url(#SVGID_3_);}
	.st3{fill:#FFFFFF;}
</style>
<g>
	<linearGradient id="SVGID_1_" gradientUnits="userSpaceOnUse" x1="22" y1="44" x2="22" y2="-9.094947e-13">
		<stop  offset="1.000000e-08" style="stop-color:#20E2D7"/>
		<stop  offset="1" style="stop-color:#E9FEA5"/>
	</linearGradient>
	<circle class="st0" cx="22" cy="22" r="22"/>
	<linearGradient id="SVGID_2_" gradientUnits="userSpaceOnUse" x1="22" y1="44" x2="22" y2="-9.094947e-13">
		<stop  offset="1.000000e-08" style="stop-color:#20E2D7"/>
		<stop  offset="1" style="stop-color:#E9FEA5"/>
	</linearGradient>
	<circle class="st1" cx="22" cy="22" r="22"/>
	<linearGradient id="SVGID_3_" gradientUnits="userSpaceOnUse" x1="22" y1="44" x2="22" y2="-9.094947e-13">
		<stop  offset="1.000000e-08" style="stop-color:#20E2D7"/>
		<stop  offset="1" style="stop-color:#E9FEA5"/>
	</linearGradient>
	<circle class="st2" cx="22" cy="22" r="22"/>
	<g>
		<path class="st3" d="M28.9,26c0.7,0,1.4,0.3,2,0.8c0.6,0.5,0.8,1.1,0.8,1.9c0,0.3,0,0.5-0.1,0.7c-0.1,0.2-0.2,0.5-0.4,0.7
			c-0.8,1.3-1.9,2.4-3.4,3.2c-1.5,0.8-3.1,1.2-5,1.2h-0.4c-1.4,0-2.7-0.2-3.9-0.7c-1.2-0.5-2.3-1.1-3.2-1.9
			c-0.9-0.8-1.7-1.8-2.2-2.9c-0.6-1.1-0.8-2.3-0.8-3.6V19c0-1.3,0.3-2.5,0.8-3.7c0.5-1.1,1.2-2.1,2.1-3c0.9-0.9,2-1.5,3.2-2
			c1.2-0.5,2.6-0.7,4.1-0.7c0.8,0,1.5,0.1,2.2,0.2c1.1,0.2,2.2,0.5,3.2,1.1c1.5,0.8,2.6,1.9,3.5,3.3c0.1,0.2,0.2,0.4,0.3,0.7
			c0.1,0.3,0.1,0.5,0.1,0.7c0,0.7-0.3,1.4-0.8,1.9c-0.6,0.5-1.2,0.8-2,0.8c-0.6,0-1.1-0.1-1.5-0.4c-0.4-0.3-0.7-0.7-1-1.1
			C26,16,25.6,15.6,25,15.3c-0.5-0.3-1.1-0.5-1.8-0.7c-0.2,0-0.5,0-0.7,0c-0.7,0-1.3,0.1-1.8,0.3c-0.6,0.2-1,0.5-1.5,0.9
			c-0.4,0.4-0.7,0.8-1,1.3c-0.2,0.5-0.4,1.1-0.4,1.6V25c0,0.6,0.1,1.2,0.3,1.7c0.2,0.5,0.6,1,1,1.4c0.4,0.4,0.9,0.7,1.5,0.9
			c0.6,0.2,1.2,0.4,1.9,0.4H23c0.8-0.2,1.5-0.4,2-0.7c0.6-0.3,1-0.7,1.4-1.2c0.3-0.4,0.6-0.8,1-1.1C27.6,26.1,28.2,26,28.9,26z"/>
	</g>
</g>
</svg>
