<?xml version="1.0" encoding="utf-8"?>
<!-- Generator: Adobe Illustrator 21.1.0, SVG Export Plug-In . SVG Version: 6.00 Build 0)  -->
<svg version="1.1" id="圖層_1" xmlns="http://www.w3.org/2000/svg" xmlns:xlink="http://www.w3.org/1999/xlink" x="0px" y="0px"
	 viewBox="0 0 52 52" style="enable-background:new 0 0 52 52;" xml:space="preserve">
<style type="text/css">
	.st0{fill:url(#SVGID_1_);}
	.st1{fill:url(#SVGID_2_);}
	.st2{fill:url(#SVGID_3_);}
	.st3{fill:#FFFFFF;}
</style>
<g>
	<linearGradient id="SVGID_1_" gradientUnits="userSpaceOnUse" x1="26" y1="52" x2="26" y2="-9.094947e-13">
		<stop  offset="1.000000e-08" style="stop-color:#20E2D7"/>
		<stop  offset="1" style="stop-color:#E9FEA5"/>
	</linearGradient>
	<circle class="st0" cx="26" cy="26" r="26"/>
	<linearGradient id="SVGID_2_" gradientUnits="userSpaceOnUse" x1="26" y1="52" x2="26" y2="-9.094947e-13">
		<stop  offset="1.000000e-08" style="stop-color:#20E2D7"/>
		<stop  offset="1" style="stop-color:#E9FEA5"/>
	</linearGradient>
	<circle class="st1" cx="26" cy="26" r="26"/>
	<linearGradient id="SVGID_3_" gradientUnits="userSpaceOnUse" x1="26" y1="52" x2="26" y2="-9.094947e-13">
		<stop  offset="1.000000e-08" style="stop-color:#20E2D7"/>
		<stop  offset="1" style="stop-color:#E9FEA5"/>
	</linearGradient>
	<circle class="st2" cx="26" cy="26" r="26"/>
	<g>
		<path class="st3" d="M34.2,30.7c0.9,0,1.7,0.3,2.3,0.9c0.7,0.6,1,1.3,1,2.2c0,0.3-0.1,0.6-0.2,0.9c-0.1,0.3-0.3,0.6-0.4,0.9
			c-1,1.6-2.3,2.8-4,3.8c-1.7,0.9-3.7,1.4-5.9,1.4h-0.4c-1.6,0-3.2-0.3-4.6-0.8c-1.4-0.5-2.7-1.3-3.8-2.3c-1.1-1-2-2.1-2.6-3.4
			c-0.7-1.3-1-2.7-1-4.3v-7.5c0-1.5,0.3-3,0.9-4.3c0.6-1.4,1.4-2.5,2.5-3.5c1.1-1,2.3-1.8,3.8-2.4c1.4-0.6,3-0.9,4.8-0.9
			c1,0,1.8,0.1,2.6,0.2c1.3,0.2,2.6,0.6,3.7,1.2c1.7,0.9,3.1,2.2,4.1,3.9c0.1,0.2,0.3,0.5,0.4,0.8c0.1,0.3,0.2,0.6,0.2,0.9
			c0,0.9-0.3,1.6-1,2.2c-0.7,0.6-1.4,0.9-2.4,0.9c-0.7,0-1.3-0.2-1.8-0.5c-0.5-0.4-0.9-0.8-1.2-1.3c-0.4-0.6-0.9-1.1-1.6-1.5
			c-0.6-0.3-1.3-0.6-2.2-0.8c-0.3,0-0.6,0-0.9,0c-0.8,0-1.5,0.1-2.2,0.4c-0.7,0.3-1.2,0.6-1.7,1c-0.5,0.4-0.9,1-1.2,1.6
			c-0.3,0.6-0.4,1.3-0.4,1.9v7.4c0,0.7,0.1,1.4,0.4,2c0.3,0.6,0.7,1.2,1.2,1.6c0.5,0.5,1.1,0.8,1.8,1.1c0.7,0.3,1.4,0.4,2.3,0.4h0.6
			c1-0.2,1.8-0.4,2.4-0.8c0.7-0.4,1.2-0.9,1.6-1.5c0.4-0.5,0.7-1,1.1-1.3C32.7,30.8,33.3,30.7,34.2,30.7z"/>
	</g>
</g>
</svg>
